<svg width="1400" height="420" viewBox="0 0 1400 420" fill="none" xmlns="http://www.w3.org/2000/svg">
  <defs>
    <linearGradient id="bg" x1="0" y1="0" x2="1400" y2="420" gradientUnits="userSpaceOnUse">
      <stop offset="0" stop-color="#05070B"/>
      <stop offset="0.5" stop-color="#0D141B"/>
      <stop offset="1" stop-color="#111A22"/>
    </linearGradient>
    <linearGradient id="gold" x1="0" y1="0" x2="1" y2="1">
      <stop offset="0" stop-color="#F8E9B4"/>
      <stop offset="0.35" stop-color="#E6C76B"/>
      <stop offset="0.65" stop-color="#D4AF37"/>
      <stop offset="1" stop-color="#8D6A14"/>
    </linearGradient>
    <linearGradient id="panel" x1="0" y1="0" x2="1" y2="1">
      <stop offset="0" stop-color="#121C26"/>
      <stop offset="1" stop-color="#0C141A"/>
    </linearGradient>
    <filter id="glow" x="-30%" y="-30%" width="160%" height="160%">
      <feGaussianBlur stdDeviation="10" result="blur"/>
      <feMerge>
        <feMergeNode in="blur"/>
        <feMergeNode in="SourceGraphic"/>
      </feMerge>
    </filter>
  </defs>

  <rect width="1400" height="420" fill="url(#bg)"/>

  <g opacity="0.22">
    <circle cx="1100" cy="120" r="170" fill="url(#gold)"/>
    <circle cx="1230" cy="310" r="130" fill="#00BCD4" opacity="0.18"/>
    <circle cx="980" cy="310" r="220" fill="#D4AF37" opacity="0.12"/>
  </g>

  <g opacity="0.18" stroke="url(#gold)" stroke-width="1.2">
    <path d="M40 330C270 260 340 200 530 165C730 128 890 150 1050 222C1160 274 1260 308 1340 300"/>
    <path d="M70 290C250 215 360 155 560 105C760 56 960 72 1120 138C1215 177 1298 213 1350 210"/>
  </g>

  <g filter="url(#glow)">
    <rect x="110" y="90" width="430" height="245" rx="22" fill="url(#panel)" stroke="url(#gold)" stroke-width="2"/>
    <rect x="132" y="114" width="130" height="13" rx="6.5" fill="url(#gold)"/>
    <rect x="132" y="145" width="200" height="11" rx="5.5" fill="#2A3744"/>
    <rect x="132" y="170" width="286" height="11" rx="5.5" fill="#2A3744"/>
    <rect x="132" y="196" width="240" height="11" rx="5.5" fill="#2A3744"/>

    <rect x="132" y="230" width="96" height="62" rx="16" fill="url(#gold)"/>
    <rect x="244" y="230" width="126" height="62" rx="16" fill="#14202A" stroke="#405468"/>
    <rect x="386" y="230" width="106" height="62" rx="16" fill="#14202A" stroke="#405468"/>
  </g>

  <g>
    <text x="610" y="182" fill="#F8FAFC" font-family="Segoe UI, Arial, sans-serif" font-size="80" font-weight="900" letter-spacing="2">GLOBDE</text>
    <text x="614" y="230" fill="url(#gold)" font-family="Segoe UI, Arial, sans-serif" font-size="27" font-weight="800" letter-spacing="7">BARBERÍA MODERNA</text>
    <text x="614" y="278" fill="#D6E0EC" font-family="Segoe UI, Arial, sans-serif" font-size="23" font-weight="500">Citas • clientes • barberos • fidelización • reportes</text>

    <g transform="translate(614 314)">
      <rect width="290" height="58" rx="29" fill="url(#gold)"/>
      <text x="145" y="36" text-anchor="middle" fill="#0B1117" font-family="Segoe UI, Arial, sans-serif" font-size="21" font-weight="900">VER PROYECTO</text>
    </g>
  </g>
</svg>
